<svg version="1.1" xmlns="http://www.w3.org/2000/svg" viewBox="0 0 346 217">
    <style type="text/css">
        .st0{fill:#D9E2E7;}
        .st1{fill:#1A1A1A;}
        .st2{fill:#A6B9C2;}
        .st3{fill:#FFFFFF;}
        .st4{fill:none;stroke:#1A1A1A;stroke-linecap:round;stroke-linejoin:round;stroke-miterlimit:10;}
        .st5{fill:#67EC88;}
    </style>
    <g>
        <g>
            <g>
                <path class="st0"
                    d="M229.3,165.9H40.8c-6.6,0-12-5.4-12-12V30.4c0-6.6,5.4-12,12-12h188.5c6.6,0,12,5.4,12,12v123.5
                    C241.3,160.6,235.9,165.9,229.3,165.9z" />
            </g>
            <g>
                <path class="st0"
                    d="M117,163.2c0,0,0.3,7.9-1.2,12.7c-1.5,4.8-6.7,11.3-6.7,11.3s-4.2,5.2-6,8c-1.8,2.8-1.8,9.7-1.8,9.7h70
                    c0,0,0.7-5.3-1-8.5c-1.7-3.2-8-11.5-9.7-14c-1.8-2.5-3.1-4.8-3.8-7.7c-0.8-2.9-1.2-7-1-8.5s0-3.5,0-3.5L117,163.2z" />
            </g>
            <g>
                <path class="st1"
                    d="M117.3,166.2h38.5c0,0,0.3,4.7,0.6,6.3c0.8,4.4,4.8,11.3,4.8,11.3l-44.9-8.1L117.3,166.2z" />
            </g>
            <g>
                <path class="st1"
                    d="M241.8,53.2c-0.3,0-0.5-0.2-0.5-0.5v-22c0-6.3-5.2-11.5-11.5-11.5H41.3c-6.3,0-11.5,5.2-11.5,11.5v14.8
                    c0,0.3-0.2,0.5-0.5,0.5s-0.5-0.2-0.5-0.5V30.7c0-6.9,5.6-12.5,12.5-12.5h188.5c6.9,0,12.5,5.6,12.5,12.5v22
                    C242.3,53,242.1,53.2,241.8,53.2z" />
            </g>
            <g>
                <path class="st1"
                    d="M47.6,166.7h-6.3c-6.9,0-12.5-5.6-12.5-12.5V91.1c0-0.3,0.2-0.5,0.5-0.5s0.5,0.2,0.5,0.5v63.1
                    c0,6.3,5.2,11.5,11.5,11.5h6.3c0.3,0,0.5,0.2,0.5,0.5S47.9,166.7,47.6,166.7z" />
            </g>
            <g>
                <path class="st1"
                    d="M172.7,166.7H54.4c-0.3,0-0.5-0.2-0.5-0.5s0.2-0.5,0.5-0.5h118.4c0.3,0,0.5,0.2,0.5,0.5
                    S173,166.7,172.7,166.7z" />
            </g>
            <g>
                <g>
                    <path class="st1"
                        d="M101.3,205c-0.2,0-0.4-0.2-0.5-0.4c0-0.2-1.1-5.9,3.4-12.1c1.8-2.4,3.2-4.2,4.4-5.7
                        c2.1-2.6,3.6-4.4,5.3-7.8c2.6-5.1,2.5-12.8,2.5-12.9c0-0.3,0.2-0.5,0.5-0.5c0,0,0,0,0,0c0.3,0,0.5,0.2,0.5,0.5
                        c0,0.3,0.2,8-2.6,13.4c-1.8,3.4-3.3,5.3-5.4,7.9c-1.2,1.5-2.6,3.2-4.4,5.6c-4.3,5.8-3.2,11.3-3.2,11.3
                        C101.9,204.7,101.7,205,101.3,205C101.4,205,101.4,205,101.3,205z" />
                </g>
                <g>
                    <path class="st1"
                        d="M171.5,204.6C171.4,204.6,171.4,204.6,171.5,204.6c-0.4-0.1-0.5-0.3-0.5-0.6c0,0,0.6-3.1-0.9-7.1
                        c-0.1-0.3,0-0.5,0.3-0.6c0.3-0.1,0.5,0,0.6,0.3c1.6,4.2,1,7.5,0.9,7.6C171.9,204.4,171.7,204.6,171.5,204.6z" />
                </g>
                <g>
                    <path class="st1"
                        d="M158.3,179.4c-0.2,0-0.4-0.1-0.4-0.3c-2.8-5.3-2.6-12.2-2.6-12.5c0-0.3,0.3-0.5,0.5-0.5
                        c0.3,0,0.5,0.2,0.5,0.5c0,0.1-0.2,6.9,2.5,12c0.1,0.2,0,0.5-0.2,0.7C158.5,179.4,158.4,179.4,158.3,179.4z" />
                </g>
            </g>
            <g>
                <path class="st1"
                    d="M133.4,191.9H106c-0.3,0-0.5-0.2-0.5-0.5s0.2-0.5,0.5-0.5h27.4c0.3,0,0.5,0.2,0.5,0.5
                    S133.7,191.9,133.4,191.9z" />
            </g>
            <g>
                <path class="st1"
                    d="M58.5,151.7H44.7c-0.3,0-0.5-0.2-0.5-0.5v-13c0-0.3,0.2-0.5,0.5-0.5s0.5,0.2,0.5,0.5v12.5h13.3
                    c0.3,0,0.5,0.2,0.5,0.5S58.8,151.7,58.5,151.7z" />
            </g>
            <g>
                <path class="st1"
                    d="M227.8,46c-0.3,0-0.5-0.2-0.5-0.5V34h-11.5c-0.3,0-0.5-0.2-0.5-0.5s0.2-0.5,0.5-0.5h12
                    c0.3,0,0.5,0.2,0.5,0.5v12C228.3,45.8,228.1,46,227.8,46z" />
            </g>
            <g>
                <path class="st1"
                    d="M44.7,45.5c-0.3,0-0.5-0.2-0.5-0.5V33.5c0-0.3,0.2-0.5,0.5-0.5h11.5c0.3,0,0.5,0.2,0.5,0.5S56.5,34,56.2,34
                    h-11v11C45.2,45.3,45,45.5,44.7,45.5z" />
            </g>
            <g>
                <polygon class="st1" points="89.6,91.3 89.6,103.7 99.9,97.8 			" />
            </g>
            <g>
                <path class="st1"
                    d="M69.5,103.2c-0.1,0-0.3,0-0.4-0.2L65,98.8v3.8c0,0.3-0.2,0.5-0.5,0.5s-0.5-0.2-0.5-0.5v-9.4
                    c0-0.3,0.2-0.5,0.4-0.5c1.6-0.2,4.8,0.1,5.2,2.8c0.1,0.8,0,1.5-0.5,2c-0.7,0.8-1.9,1.2-2.8,1.3l3.5,3.5c0.2,0.2,0.2,0.5,0,0.7
                    C69.8,103.2,69.7,103.2,69.5,103.2z M65,93.7V98c0.1-0.1,0.2-0.1,0.3-0.1c0.6,0,2.4-0.2,3.1-1c0.3-0.3,0.4-0.7,0.3-1.2
                    C68.4,93.8,66,93.7,65,93.7z" />
            </g>
            <g>
                <path class="st1"
                    d="M76.9,102.9h-4.5c-0.3,0-0.5-0.2-0.5-0.5v-8.8c0-0.3,0.2-0.5,0.5-0.5l4.2-0.1c0,0,0,0,0,0
                    c0.3,0,0.5,0.2,0.5,0.5c0,0.3-0.2,0.5-0.5,0.5l-3.7,0.1v7.8h4c0.3,0,0.5,0.2,0.5,0.5S77.1,102.9,76.9,102.9z" />
            </g>
            <g>
                <path class="st1"
                    d="M76.1,98.5h-3.5c-0.3,0-0.5-0.2-0.5-0.5s0.2-0.5,0.5-0.5h3.5c0.3,0,0.5,0.2,0.5,0.5S76.4,98.5,76.1,98.5z" />
            </g>
            <g>
                <path class="st1"
                    d="M84,103.1c-0.3,0-2.3-0.1-3.6-1.4c-0.8-0.8-1.2-2-1.1-3.4c0.2-4.8,4.3-5.2,4.4-5.2c0.3,0,0.5,0.2,0.5,0.5
                    c0,0.3-0.2,0.5-0.5,0.5l0,0c-0.1,0-3.3,0.3-3.5,4.2c0,1.1,0.2,2,0.9,2.7c1.1,1.1,2.9,1.1,2.9,1.1c0.3,0,0.5,0.2,0.5,0.5
                    S84.3,103.1,84,103.1C84,103.1,84,103.1,84,103.1z" />
            </g>
            <g>
                <path class="st1"
                    d="M45.6,74.7C45.6,74.7,45.6,74.7,45.6,74.7c-11.3-0.1-28.4-0.1-29.3,0c-0.3,0-0.5-0.1-0.6-0.4
                    c0-0.3,0.1-0.5,0.4-0.6c1.2-0.2,26.5,0,29.4,0c0.3,0,0.5,0.2,0.5,0.5C46.1,74.5,45.8,74.7,45.6,74.7z" />
            </g>
            <g>
                <path class="st2" d="M102.7,112.2c0,0.6,0,10.4,0,10.4h107.6v-10.2L102.7,112.2z" />
            </g>
            <g>
                <path class="st3"
                    d="M208.3,118.2H104.3c-0.3,0-0.5-0.2-0.5-0.5s0.2-0.5,0.5-0.5h104.1c0.3,0,0.5,0.2,0.5,0.5
                    S208.6,118.2,208.3,118.2z" />
            </g>
        </g>
    </g>
    <g id="cloud">
        <g>
            <g>
                <path class="st3"
                    d="M103.4,66.6c0,0-4.1-24.1-22.3-24.8S55.8,55.9,48,58c-7.8,2.2-8.4-5.7-20.2-5.7S7.7,67.7,7.7,67.7
                    L103.4,66.6z" />
            </g>
            <g>
                <path class="st1"
                    d="M7.7,68.2c-0.1,0-0.2,0-0.2-0.1c-0.2-0.1-0.3-0.4-0.2-0.7c0.3-0.6,8.7-15.7,20.6-15.7
                    c6.1,0,9.3,2.1,11.9,3.8c2.5,1.6,4.5,2.9,8.1,1.9c2.6-0.7,5.2-2.9,8.1-5.5c5.8-5,13-11.3,25.1-10.7c18.4,0.8,22.7,25,22.8,25.3
                    c0,0.3-0.1,0.5-0.4,0.6c-0.3,0-0.5-0.1-0.6-0.4c0-0.2-4.3-23.7-21.8-24.4c-11.7-0.5-18.7,5.6-24.4,10.5c-3.1,2.7-5.7,5-8.5,5.7
                    c-4.1,1.1-6.3-0.3-8.9-2c-2.6-1.7-5.6-3.6-11.4-3.6c-11.3,0-19.6,15-19.7,15.2C8,68.1,7.8,68.2,7.7,68.2z" />
            </g>
        </g>
    </g>
    <g id="shtuka">
        <g>
            <circle class="st3" cx="112.3" cy="117.8" r="2.6" />
        </g>
    </g>
    <g id="timeline">
        <g>
            <path class="st1"
                d="M212,98.1H102.8c-0.3,0-0.5-0.2-0.5-0.5s0.2-0.5,0.5-0.5H212c0.3,0,0.5,0.2,0.5,0.5S212.3,98.1,212,98.1z" />
        </g>
    </g>
    <g id="trecker">
        <g>
            <path class="st1"
                d="M102.3,104c-0.3,0-0.5-0.2-0.5-0.5V92c0-0.3,0.2-0.5,0.5-0.5s0.5,0.2,0.5,0.5v11.5
                C102.8,103.7,102.6,104,102.3,104z" />
        </g>
    </g>
    <g id="wave">
        <g>
            <path class="st1"
                d="M116,89.7c-1.8,0-3-1-4.3-2c-1.2-1-2.5-2-4.4-2.2c-1.9-0.1-4.4,1.4-4.5,1.4c-0.2,0.1-0.5,0.1-0.7-0.2
                c-0.1-0.2-0.1-0.5,0.2-0.7c0.1-0.1,2.8-1.6,5-1.5c2.2,0.1,3.7,1.3,4.9,2.4c1.2,1,2.3,1.9,3.8,1.8c1.6,0,2.7-1.1,4.1-2.3
                c1.8-1.6,4.1-3.6,8.2-3.6c3.7,0,5.4,1.6,7,3.2c1.5,1.4,2.8,2.7,5.8,2.7c3,0,5.4-2.6,8.2-5.7c3.5-3.8,7.4-8.2,13.7-8.2
                c5.9,0,9.5,3.8,12.9,7.5c3,3.2,5.8,6.2,9.9,6.2c4.9,0,6.4-2.1,7.9-4.2c1.2-1.7,2.3-3.2,4.9-3.2c3.3,0,4.6,2.5,5.6,4.5
                c0.8,1.6,1.5,3,3,3c2.8,0,4-2.9,4-3c0.1-0.3,0.4-0.4,0.6-0.3c0.3,0.1,0.4,0.4,0.3,0.6c-0.1,0.1-1.5,3.6-5,3.6
                c-2.1,0-3-1.8-3.9-3.6c-1-2-2-4-4.7-4c-2.1,0-3,1.2-4.1,2.8c-1.5,2.1-3.3,4.6-8.7,4.6c-4.6,0-7.5-3.2-10.7-6.6
                c-3.3-3.5-6.7-7.2-12.2-7.2c-5.8,0-9.6,4.2-12.9,7.8c-2.8,3.1-5.5,6-8.9,6c-3.4,0-4.9-1.5-6.5-3c-1.5-1.5-3-2.9-6.3-2.9
                c-3.7,0-5.7,1.8-7.5,3.4c-1.4,1.3-2.8,2.4-4.7,2.5C116.1,89.7,116,89.7,116,89.7z" />
        </g>
    </g>
    <g id="horison">
        <g>
            <path class="st1"
                d="M312.1,205.2H29.9c-0.3,0-0.5-0.2-0.5-0.5s0.2-0.5,0.5-0.5h282.1c0.3,0,0.5,0.2,0.5,0.5
                S312.3,205.2,312.1,205.2z" />
        </g>
    </g>
    <g id="body">
        <g>
            <g>
                <path class="st3"
                    d="M248.5,116.8l-7.5,0.9c0,0-11.2-1.4-20.3,38.7c-5.2,22.8-6.7,38-6.7,38s7.4,5.9,13.3,8.2s8,2.2,8,2.2
                    l30.9-0.8c0,0,4.5-0.4,8.6-2.2c4.1-1.8,4.1-1.8,4.1-1.8l0.2,4.3l14.9-0.3l-13.2-56.6c0,0-5.3-17.6-11.2-23.9s-11.8-7-11.8-7
                    L248.5,116.8z" />
            </g>
            <g>
                <path class="st2"
                    d="M216.8,197l-1.3,7.6l16.8-0.1c0,0-5.3-1.7-9-3.7C219.7,198.8,216.8,197,216.8,197z" />
            </g>
            <g>
                <path class="st2"
                    d="M264.2,204.4c0.5-0.3,6.1-0.9,8.6-2.1c2.5-1.2,6.1-2.9,6.1-2.9l0.3,5.3L264.2,204.4z" />
            </g>
            <g>
                <polygon class="st1"
                    points="214.8,185.4 271.8,134 273.2,144.2 250.7,167.7 234.8,180.8 215.2,195.3 			" />
            </g>
            <g>
                <path class="st1"
                    d="M233,205c0,0-0.1,0-0.1,0c-0.2-0.1-5.4-1.4-9.7-3.8c-4.3-2.3-8.3-5.6-8.4-5.6c-0.2-0.2-0.2-0.5-0.1-0.7
                    c0.2-0.2,0.5-0.2,0.7-0.1c0,0,4,3.2,8.2,5.5c4.2,2.3,9.4,3.7,9.5,3.7c0.3,0.1,0.4,0.3,0.4,0.6C233.4,204.9,233.2,205,233,205z" />
            </g>
            <g>
                <path class="st1"
                    d="M259.9,205c-0.3,0-0.5-0.2-0.5-0.5c0-0.3,0.2-0.5,0.5-0.5c0.1,0,8.6-0.8,12.7-2.1c4.6-1.5,6.8-3.1,7.5-3.6
                    l-2.5-20.4c0-0.3,0.2-0.5,0.4-0.6c0.3,0,0.5,0.2,0.6,0.4l2.5,20.7c0,0.2,0,0.3-0.1,0.4c-0.1,0.1-2.2,2.2-8,4
                    C268.7,204.2,260.3,205,259.9,205C260,205,259.9,205,259.9,205z" />
            </g>
            <g>
                <path class="st1"
                    d="M215.4,204.9C215.4,204.9,215.4,204.9,215.4,204.9c-0.4-0.1-0.5-0.3-0.5-0.6l1.4-7.5c0-0.3,0.3-0.4,0.6-0.4
                    c0.3,0,0.5,0.3,0.4,0.6l-1.4,7.5C215.9,204.8,215.7,204.9,215.4,204.9z" />
            </g>
            <g>
                <path class="st1"
                    d="M279.2,205.2c-0.3,0-0.5-0.2-0.5-0.5l-0.4-4.7c0-0.3,0.2-0.5,0.5-0.5c0.3,0,0.5,0.2,0.5,0.5l0.4,4.7
                    C279.7,205,279.5,205.2,279.2,205.2C279.2,205.2,279.2,205.2,279.2,205.2z" />
            </g>
            <g>
                <path class="st1"
                    d="M294.1,204.3c-0.2,0-0.4-0.2-0.5-0.4l-14.5-60.2c-0.1-0.2-0.2-0.7-0.5-1.4c-1-3.3-3.5-11.9-8.8-17
                    c-6.3-6.1-13-7.7-13.1-7.7c-0.3-0.1-0.4-0.3-0.4-0.6c0.1-0.3,0.3-0.4,0.6-0.4c0.3,0.1,7,1.7,13.5,8c5.5,5.3,8,13.8,9.1,17.4
                    c0.2,0.6,0.4,1.2,0.4,1.3c0,0,0,0.1,0,0.1l14.5,60.3c0.1,0.3-0.1,0.5-0.4,0.6C294.1,204.3,294.1,204.3,294.1,204.3z" />
            </g>
            <g>
                <path class="st1"
                    d="M233.8,199.8c-0.1,0-0.2,0-0.2-0.1l-4.1-2.2c-0.2-0.1-0.3-0.4-0.2-0.7c0.1-0.2,0.4-0.3,0.7-0.2l4.1,2.2
                    c0.2,0.1,0.3,0.4,0.2,0.7C234.2,199.7,234,199.8,233.8,199.8z" />
            </g>
            <g>
                <path class="st1"
                    d="M245.2,192.5c-0.2,0-0.4-0.1-0.5-0.3l-2-4.9c-0.1-0.3,0-0.5,0.3-0.6c0.3-0.1,0.5,0,0.6,0.3l2,4.9
                    c0.1,0.3,0,0.5-0.3,0.6C245.3,192.5,245.2,192.5,245.2,192.5z" />
            </g>
            <g>
                <path class="st1"
                    d="M251.8,185.9C251.8,185.9,251.8,185.9,251.8,185.9c-0.3,0-0.5-0.3-0.5-0.6l0.6-4.3c0-0.3,0.3-0.5,0.6-0.4
                    c0.3,0,0.5,0.3,0.4,0.6l-0.6,4.3C252.3,185.7,252.1,185.9,251.8,185.9z" />
            </g>
            <g>
                <path class="st1"
                    d="M261.6,178.8c-0.2,0-0.3-0.1-0.4-0.3c-0.1-0.2-0.1-0.5,0.2-0.7l4.1-2.3c0.2-0.1,0.5-0.1,0.7,0.2
                    c0.1,0.2,0.1,0.5-0.2,0.7l-4.1,2.3C261.8,178.8,261.7,178.8,261.6,178.8z" />
            </g>
            <g>
                <path class="st1"
                    d="M259.4,198h-4.7c-0.3,0-0.5-0.2-0.5-0.5s0.2-0.5,0.5-0.5h4.7c0.3,0,0.5,0.2,0.5,0.5S259.7,198,259.4,198z" />
            </g>
            <g>
                <path class="st1"
                    d="M269.4,194.5c-0.2,0-0.4-0.1-0.5-0.3l-2.2-4.9c-0.1-0.3,0-0.5,0.3-0.7c0.3-0.1,0.5,0,0.7,0.3l2.2,4.9
                    c0.1,0.3,0,0.5-0.3,0.7C269.5,194.5,269.5,194.5,269.4,194.5z" />
            </g>
            <g>
                <path class="st1"
                    d="M288.6,201.4c0,0-0.1,0-0.1,0l-5.1-1.6c-0.3-0.1-0.4-0.4-0.3-0.6c0.1-0.3,0.4-0.4,0.6-0.3l5.1,1.6
                    c0.3,0.1,0.4,0.4,0.3,0.6C289,201.3,288.8,201.4,288.6,201.4z" />
            </g>
            <g>
                <path class="st1"
                    d="M215.4,185.9c-0.1,0-0.3-0.1-0.4-0.2c-0.2-0.2-0.2-0.5,0-0.7l56.3-51.4c0.2-0.2,0.5-0.2,0.7,0
                    c0.2,0.2,0.2,0.5,0,0.7l-56.3,51.4C215.7,185.8,215.5,185.9,215.4,185.9z" />
            </g>
            <g>
                <path class="st1"
                    d="M215.2,195.8c-0.2,0-0.3-0.1-0.4-0.2c-0.2-0.2-0.1-0.5,0.1-0.7c0.2-0.2,23.4-16.5,32.5-24.6
                    c9.1-8.1,25.7-26.2,25.9-26.4c0.2-0.2,0.5-0.2,0.7,0c0.2,0.2,0.2,0.5,0,0.7c-0.2,0.2-16.9,18.3-26,26.4
                    c-9.1,8.1-32.4,24.6-32.6,24.7C215.4,195.8,215.3,195.8,215.2,195.8z" />
            </g>
            <g>
                <path class="st1"
                    d="M248.5,149.9c-0.2,0-0.4-0.1-0.5-0.3l-1.6-4.4c-0.1-0.3,0-0.5,0.3-0.6c0.3-0.1,0.5,0,0.6,0.3l1.6,4.4
                    c0.1,0.3,0,0.5-0.3,0.6C248.7,149.9,248.6,149.9,248.5,149.9z" />
            </g>
            <g>
                <path class="st1"
                    d="M237.5,159.3c0,0-0.1,0-0.1,0l-4.7-1c-0.3-0.1-0.4-0.3-0.4-0.6c0.1-0.3,0.3-0.4,0.6-0.4l4.7,1
                    c0.3,0.1,0.4,0.3,0.4,0.6C238,159.1,237.8,159.3,237.5,159.3z" />
            </g>
            <g>
                <path class="st1"
                    d="M239.7,139.7c-0.2,0-0.5-0.2-0.5-0.4l-0.6-4.7c0-0.3,0.2-0.5,0.4-0.6c0.3,0,0.5,0.2,0.6,0.4l0.6,4.7
                    C240.2,139.4,240,139.7,239.7,139.7C239.7,139.7,239.7,139.7,239.7,139.7z" />
            </g>
            <g>
                <path class="st1"
                    d="M227,168.3C226.9,168.3,226.9,168.3,227,168.3l-4.9-0.4c-0.3,0-0.5-0.3-0.5-0.5s0.3-0.5,0.5-0.5l4.9,0.4
                    c0.3,0,0.5,0.3,0.5,0.5C227.4,168.1,227.2,168.3,227,168.3z" />
            </g>
        </g>
        <g>
            <path class="st1"
                d="M254.7,139.3c-0.1,0-0.2,0-0.3-0.1l-3.3-2.2c-0.2-0.2-0.3-0.5-0.1-0.7c0.2-0.2,0.5-0.3,0.7-0.1l3.3,2.2
                c0.2,0.2,0.3,0.5,0.1,0.7C255.1,139.2,254.9,139.3,254.7,139.3z" />
        </g>
        <g>
            <path class="st1"
                d="M277.5,172.6c-0.3,0-0.5-0.2-0.5-0.4c0-0.2-2.4-22.2-5.7-38.3c-0.1-0.3,0.1-0.5,0.4-0.6
                c0.3-0.1,0.5,0.1,0.6,0.4c3.4,16.1,5.7,38.2,5.7,38.4C278,172.3,277.8,172.5,277.5,172.6C277.5,172.6,277.5,172.6,277.5,172.6z" />
        </g>
        <g>
            <path class="st1"
                d="M257.1,128.5c-0.1,0-0.2,0-0.2-0.1l-4.1-2.2c-0.2-0.1-0.3-0.4-0.2-0.7c0.1-0.2,0.4-0.3,0.7-0.2l4.1,2.2
                c0.2,0.1,0.3,0.4,0.2,0.7C257.4,128.4,257.3,128.5,257.1,128.5z" />
        </g>
        <g>
            <path class="st1"
                d="M261.9,137.5c-0.1,0-0.2,0-0.3-0.1c-0.2-0.2-0.2-0.5,0-0.7l2.7-2.9c0.2-0.2,0.5-0.2,0.7,0
                c0.2,0.2,0.2,0.5,0,0.7l-2.7,2.9C262.1,137.5,262,137.5,261.9,137.5z" />
        </g>
        <g>
            <path class="st1"
                d="M265.1,166.5c-0.2,0-0.4-0.2-0.5-0.4c-0.1-0.3,0.1-0.5,0.4-0.6l6.5-1.4c0.3-0.1,0.5,0.1,0.6,0.4
                c0.1,0.3-0.1,0.5-0.4,0.6l-6.5,1.4C265.2,166.5,265.1,166.5,265.1,166.5z" />
        </g>
        <g>
            <path class="st4" d="M314.4,120.5" />
        </g>
        <g>
            <path class="st1"
                d="M239.1,118.9c-0.2,0-0.4-0.1-0.5-0.3c-0.1-0.3,0-0.5,0.3-0.6c0.3-0.1,7.2-2.5,12.7-2.7c0.3,0,0.5,0.2,0.5,0.5
                c0,0.3-0.2,0.5-0.5,0.5c-5.3,0.2-12.3,2.6-12.4,2.6C239.2,118.9,239.1,118.9,239.1,118.9z" />
        </g>
        <g>
            <path class="st4" d="M314.4,120.5" />
        </g>
    </g>
    <g id="arm2">
        <g>
            <g>
                <path class="st3"
                    d="M169.2,176.2l-1.3,16c0,0,3,1.4,5.7,1.2c2.6-0.2,3.9-0.3,3.9-0.3s17.2,2,25.1,1.6c7.9-0.4,15.8-1,20.9-2.2
                    c5.2-1.2,6.8-4.6,7.2-5.7c0.5-1.1,1.5-12.7-7.6-17.5c-9.8-5.2-18.3-1.9-18.3-1.9s0.3,0,0,0s-26.7,8.7-26.7,8.7H169.2z" />
            </g>
            <g>
                <path class="st3"
                    d="M169.1,176.5c-0.2,0-3.1-0.1-4.9,0.2s-4.1,0.8-4.1,0.8l-8.9-0.6c0,0-2.1-0.1-2.4,0.7
                    c-0.4,0.9,0.6,1.6,0.6,1.6l2.7,1.2c0,0-4.1,2.4-6.5,4.5s-2.8,3.2-2.8,3.2s0.1,0.4,0.3,0.8c0.2,0.4,0.6,0.7,0.6,0.7
                    s-2.3,2.5-1.4,3.3s2.1-0.1,2.1-0.1l5.5-3l-4.2,3.9c0,0-1.1,1.3-0.6,1.9c0.5,0.6,2.1,0,2.1,0l2-0.8c0,0-0.2,1.2,1,1.4
                    c1.2,0.2,8.2-1.9,8.2-1.9l9.5-2.5L169.1,176.5z" />
            </g>
            <g>
                <path class="st1"
                    d="M203.9,195.2c-12.8,0-25.6-1.6-26.6-1.7c-0.3,0-0.5-0.3-0.4-0.6c0-0.3,0.3-0.5,0.6-0.4
                    c0.4,0,39.3,4.9,49.6-2.1c0.2-0.2,0.5-0.1,0.7,0.1c0.2,0.2,0.1,0.5-0.1,0.7C223,194.3,213.5,195.2,203.9,195.2z" />
            </g>
            <g>
                <path class="st1"
                    d="M178.2,176.5c-0.2,0-0.4-0.1-0.5-0.3c-0.1-0.3,0-0.5,0.3-0.6c0.2-0.1,20-7.5,34.7-10.4
                    c0.3-0.1,0.5,0.1,0.6,0.4c0.1,0.3-0.1,0.5-0.4,0.6c-14.7,2.9-34.4,10.3-34.6,10.4C178.3,176.5,178.3,176.5,178.2,176.5z" />
            </g>
            <g>
                <path class="st1"
                    d="M175.1,193.7c-0.6,0-1.4,0-2.2-0.1c-2.9-0.3-5-0.9-5.1-0.9c-0.2-0.1-0.4-0.3-0.4-0.5l1.2-15.8
                    c0-0.3,0.2-0.5,0.5-0.5l9.1-0.4c0.3,0,0.5,0.2,0.5,0.5c0,0.3-0.2,0.5-0.5,0.5l-8.7,0.3l-1.2,15c0.8,0.2,2.5,0.5,4.6,0.8
                    c2,0.2,3.4,0.1,3.9,0l1.2-11.7c0-0.3,0.3-0.5,0.5-0.4c0.3,0,0.5,0.3,0.4,0.5l-1.2,12c0,0.2-0.2,0.4-0.4,0.4
                    C177.4,193.5,176.6,193.7,175.1,193.7z" />
            </g>
            <g>
                <path class="st1"
                    d="M143.5,189.9c-0.1,0-0.2,0-0.3-0.1c0,0-0.8-0.5-0.9-1.4c-0.1-0.7,0.2-1.4,0.9-2.1c1.8-1.9,5.1-4.7,12.2-7.6
                    c7.2-2.9,12.8-2.7,13-2.7c0.3,0,0.5,0.2,0.5,0.5c0,0.3-0.3,0.5-0.5,0.5c-0.1,0-5.6-0.2-12.6,2.6c-7,2.8-10.1,5.5-11.9,7.3
                    c-0.3,0.3-0.7,0.8-0.7,1.3c0,0.4,0.5,0.7,0.5,0.7c0.2,0.2,0.3,0.5,0.1,0.7C143.9,189.8,143.7,189.9,143.5,189.9z" />
            </g>
            <g>
                <path class="st1"
                    d="M143,193.7c-0.1,0-0.2,0-0.3,0c-0.4-0.1-0.9-0.4-1-1c-0.2-1,0.5-2.2,2.2-3.7c3-2.6,9.4-6.2,9.7-6.4
                    c0.2-0.1,0.5,0,0.7,0.2c0.1,0.2,0,0.5-0.2,0.7c-0.1,0-6.6,3.7-9.5,6.2c-1.9,1.6-1.9,2.5-1.8,2.7c0.1,0.2,0.2,0.3,0.3,0.3
                    c0.4,0.1,1.5-0.6,2.6-1.2c0.6-0.4,1.4-0.8,2.2-1.2c2.6-1.4,6.7-4.1,6.7-4.1c0.2-0.2,0.5-0.1,0.7,0.1c0.2,0.2,0.1,0.5-0.1,0.7
                    c0,0-4.2,2.7-6.8,4.1c-0.8,0.4-1.5,0.8-2.1,1.2C144.6,193.1,143.7,193.7,143,193.7z" />
            </g>
            <g>
                <path class="st1"
                    d="M145.8,196.3c-0.3,0-0.5,0-0.7-0.2c-0.4-0.2-0.6-0.5-0.7-1c-0.3-1.8,6.8-6.9,9.9-9c0.2-0.2,0.5-0.1,0.7,0.1
                    c0.2,0.2,0.1,0.5-0.1,0.7c-4.6,3.1-9.5,7-9.5,8c0,0.2,0.1,0.3,0.2,0.3c0.5,0.2,2.1-0.5,2.8-0.8c2.3-1,7.7-4,7.7-4.1
                    c0.2-0.1,0.5,0,0.7,0.2c0.1,0.2,0,0.5-0.2,0.7c-0.2,0.1-5.5,3-7.8,4.1C147.5,195.9,146.5,196.3,145.8,196.3z" />
            </g>
            <g>
                <path class="st1"
                    d="M150.5,196.8c-0.5,0-1-0.2-1.3-0.5c-0.6-0.5-0.6-1.2-0.6-1.3c0-0.3,0.2-0.5,0.5-0.5c0.3,0,0.5,0.2,0.5,0.5
                    l0,0c0,0,0,0.3,0.3,0.6c0.2,0.2,0.5,0.2,0.9,0.2c1.2-0.1,2.1-0.4,3.8-0.9c0.9-0.3,1.9-0.6,3.4-1c2.5-0.7,9.6-2.4,9.7-2.5
                    c0.3-0.1,0.5,0.1,0.6,0.4c0.1,0.3-0.1,0.5-0.4,0.6c-0.1,0-7.1,1.7-9.6,2.4c-1.5,0.4-2.5,0.7-3.4,1c-1.7,0.5-2.6,0.8-4,0.9
                    C150.7,196.8,150.6,196.8,150.5,196.8z" />
            </g>
            <g>
                <path class="st1"
                    d="M152.7,180.9c0,0-0.1,0-0.1,0c-0.7-0.2-3.1-0.8-3.8-1.4c-0.5-0.5-0.7-1.2-0.6-1.8c0.1-0.4,0.5-1,1.6-1.2
                    c1.1-0.3,8.8,0.5,10.3,0.7c0.3,0,0.5,0.3,0.4,0.5c0,0.3-0.3,0.5-0.5,0.4c-4.4-0.4-9.3-0.8-10-0.7c-0.3,0.1-0.7,0.2-0.8,0.6
                    c-0.1,0.2,0.1,0.6,0.3,0.8c0.3,0.3,1.9,0.8,3.3,1.2c0.3,0.1,0.4,0.3,0.4,0.6C153.1,180.8,152.9,180.9,152.7,180.9z" />
            </g>
            <g>
                <path class="st1"
                    d="M193.9,184.9c-0.1,0-0.2,0-0.2-0.1l-4.8-2.7c-0.2-0.1-0.3-0.4-0.2-0.7c0.1-0.2,0.4-0.3,0.7-0.2l4.8,2.7
                    c0.2,0.1,0.3,0.4,0.2,0.7C194.2,184.8,194.1,184.9,193.9,184.9z" />
            </g>
            <g>
                <path class="st1"
                    d="M206.5,191.2c-0.2,0-0.4-0.1-0.4-0.3l-3.1-6.3c-0.1-0.2,0-0.5,0.2-0.7c0.2-0.1,0.5,0,0.7,0.2l3.1,6.3
                    c0.1,0.2,0,0.5-0.2,0.7C206.7,191.2,206.6,191.2,206.5,191.2z" />
            </g>
            <g>
                <path class="st1"
                    d="M197.7,179.3c-0.1,0-0.2,0-0.3-0.1c-0.2-0.2-0.2-0.5-0.1-0.7l3.2-3.9c0.2-0.2,0.5-0.2,0.7-0.1
                    c0.2,0.2,0.2,0.5,0.1,0.7l-3.2,3.9C198,179.3,197.8,179.3,197.7,179.3z" />
            </g>
        </g>
    </g>
    <g id="arm1">
        <g>
            <g>
                <path class="st3"
                    d="M236.7,119.2c0,0-2.9,0.6-7.5,4.6c-4.6,4-8.6,8.2-12.8,16.1c-4.2,7.9-11.3,27-11.3,27s-3.8,9.7,6.1,18.7
                    c5.5,5,15.3,6.4,18.2,2.8c2.8-3.6,7-15.3,8.2-18.9c1.2-3.6,4-9.6,6.2-17c1.3-4.3,5.1-13.1,5.5-21.9
                    C249.8,116.7,236.7,119.2,236.7,119.2z" />
            </g>
            <g>
                <path class="st1"
                    d="M204.8,168c-0.1,0-0.1,0-0.2,0c-0.3-0.1-0.4-0.4-0.3-0.6c0.1-0.2,8.6-24.5,16.5-35.2
                    c4.3-5.8,8.6-10.4,15.9-13.5c0.3-0.1,0.5,0,0.7,0.3c0.1,0.3,0,0.5-0.3,0.7c-7.1,3-11.3,7.5-15.5,13.2
                    c-7.8,10.6-16.3,34.7-16.4,35C205.2,167.9,205.1,168,204.8,168z" />
            </g>
            <g>
                <path class="st1"
                    d="M229.1,189.7c-0.1,0-0.2,0-0.3-0.1c-0.2-0.2-0.2-0.5-0.1-0.7c0,0,2.2-2.8,4.6-9c1.7-4.3,9.8-27.5,9.9-27.8
                    c0.1-0.3,0.4-0.4,0.6-0.3c0.3,0.1,0.4,0.4,0.3,0.6c-0.1,0.2-8.2,23.5-9.9,27.8c-2.5,6.4-4.7,9.1-4.8,9.3
                    C229.4,189.6,229.3,189.7,229.1,189.7z" />
            </g>
            <g>
                <path class="st1"
                    d="M218.7,155.3c-0.2,0-0.3-0.1-0.4-0.2l-2.5-3.7c-0.2-0.2-0.1-0.5,0.1-0.7c0.2-0.2,0.5-0.1,0.7,0.1l2.5,3.7
                    c0.2,0.2,0.1,0.5-0.1,0.7C218.9,155.3,218.8,155.3,218.7,155.3z" />
            </g>
            <g>
                <path class="st1"
                    d="M235.4,153.1c-0.2,0-0.4-0.1-0.4-0.3l-3.1-6c-0.1-0.2,0-0.5,0.2-0.7c0.2-0.1,0.5,0,0.7,0.2l3.1,6
                    c0.1,0.2,0,0.5-0.2,0.7C235.5,153.1,235.4,153.1,235.4,153.1z" />
            </g>
            <g>
                <path class="st1"
                    d="M235.8,138.4c-0.1,0-0.2,0-0.3-0.1c-0.2-0.2-0.2-0.5,0-0.7l3.9-4.2c0.2-0.2,0.5-0.2,0.7,0
                    c0.2,0.2,0.2,0.5,0,0.7l-3.9,4.2C236,138.3,235.9,138.4,235.8,138.4z" />
            </g>
            <g>
                <path class="st1"
                    d="M225.1,140.2c-0.3,0-0.5-0.2-0.5-0.4l-0.5-4.4c0-0.3,0.2-0.5,0.4-0.6c0.3,0,0.5,0.2,0.6,0.4l0.5,4.4
                    C225.6,139.9,225.4,140.2,225.1,140.2C225.1,140.2,225.1,140.2,225.1,140.2z" />
            </g>
            <g>
                <path class="st1"
                    d="M233.3,128.7c-0.1,0-0.2,0-0.3-0.1c-0.2-0.2-0.3-0.5-0.1-0.7l2.9-4.2c0.2-0.2,0.5-0.3,0.7-0.1
                    c0.2,0.2,0.3,0.5,0.1,0.7l-2.9,4.2C233.6,128.7,233.4,128.7,233.3,128.7z" />
            </g>
            <g>
                <path class="st1"
                    d="M226.8,171.1c-0.2,0-0.3-0.1-0.4-0.2c-0.2-0.2-0.1-0.5,0.1-0.7l3.4-2.3c0.2-0.2,0.5-0.1,0.7,0.1
                    c0.2,0.2,0.1,0.5-0.1,0.7L227,171C227,171.1,226.9,171.1,226.8,171.1z" />
            </g>
        </g>
    </g>
    <g id="Head">
        <g>
            <g>
                <g>
                    <path class="st3"
                        d="M236,72.1c0,0-2.4,2.7-2.8,8.2c-0.4,5.7,0.4,16,0.4,16s0.8,7.4,2.5,10.2c1.7,2.7,4.7,4.1,4.7,4.1l-0.6,6.5
                        l13.3-3.1c0,0-1.1-20.2-6.1-32.2C242.5,69.7,236,72.1,236,72.1z" />
                </g>
                <g>
                    <path class="st1"
                        d="M240.1,118.6C240,118.6,240,118.6,240.1,118.6c-0.3,0-0.5-0.3-0.5-0.6l0.8-7.5c0-0.3,0.3-0.5,0.6-0.4
                        c0.3,0,0.5,0.3,0.4,0.6l-0.8,7.5C240.5,118.4,240.3,118.6,240.1,118.6z" />
                </g>
                <g>
                    <path class="st1"
                        d="M241.8,110.9c-0.2,0-0.5,0-0.7,0c-1.3-0.2-4.3-2.3-5.8-5.1c-1.9-3.6-2-10.1-2.2-19.2l0-1.8
                        c-0.1-7.4,0.7-8.7,0.9-8.9c0.2-0.2,0.5-0.2,0.7,0c0.2,0.2,0.2,0.5,0.1,0.7c-0.1,0.1-0.8,1.4-0.7,8.3l0,1.8
                        c0.1,8.9,0.3,15.4,2.1,18.8c1.4,2.5,4.1,4.4,5.1,4.5c0.7,0.1,2.1-0.1,2.6-0.2c0.3-0.1,0.5,0.1,0.6,0.4c0.1,0.3-0.1,0.5-0.4,0.6
                        C244,110.6,242.8,110.9,241.8,110.9z" />
                </g>
                <g>
                    <path class="st1" d="M240.8,113.6c0.2-0.2,3.4-3.2,3.4-3.2l-3.5-0.2L240.8,113.6z" />
                </g>
            </g>
            <g>
                <path class="st5"
                    d="M238.8,65.5c0,0-3.9,3.8-3.9,6.9s-0.3,7.1,0.3,8.9c0.6,1.7,1.1,4.8,1.1,4.8s1,2.2,1.6,3.1s1.3,2,1.3,2
                    s4.4-1.2,5.5,2.2c1,3.4-0.1,4-0.1,4l-1.7,2.2c0,0,3.9,4.5,4.8,8.9c0.8,4.4,2.4,7.7,2.3,13.7c-0.1,5.7-0.1,10.2,0.3,13.8
                    c0.4,3.6,0.6,10.8,6.1,17.2c5.4,6.4,13.6,12.3,13.6,12.3s4.2,4,7.3,7.5c3.1,3.6,4.4,7.1,4.4,7.1l2.2,4.2l-0.3,3.1l18-13
                    l-2.4-12.8l6.1,9.5l5-3.1l-3.8-13c0,0,3.5,5.2,4.6,7.2s2.2,4.8,2.2,4.8s6.8-3.7,10.2-6.7c3.5-3,5.2-6,5.2-6s-0.7-3.7-3.8-8.3
                    c-3.2-4.6-7.4-11.8-13.9-16.6c-6.5-4.9-13.7-8.5-16.8-12.5s-7.5-8.5-8.8-11.4s-4.3-12-6.6-18.4c-2.3-6.3-5.7-10.9-10.4-17.1
                    c-4.7-6.2-11.7-9.2-18.6-8.5C242.8,62.1,238.8,65.5,238.8,65.5z" />
            </g>
            <g>
                <polygon class="st3" points="236.5,85.5 244.2,82.1 245.8,84.9 237.8,88.6 			" />
            </g>
            <g>
                <path class="st1"
                    d="M242.8,100c-0.2,0-0.3-0.1-0.4-0.2c-0.2-0.2-0.1-0.5,0.1-0.7c0.1-0.1,2.6-1.8,1.5-5.3
                    c-0.3-1-0.9-1.7-1.6-2.1c-1.4-0.7-3.1-0.1-3.1,0c-0.3,0.1-0.5,0-0.6-0.3c-0.1-0.3,0-0.5,0.3-0.6c0.1,0,2.1-0.8,3.9,0.1
                    c1,0.5,1.7,1.4,2.1,2.7c1.3,4.2-1.8,6.4-1.9,6.4C243,100,242.9,100,242.8,100z" />
            </g>
            <g>
                <path class="st1"
                    d="M301.6,174.8c-0.2,0-0.4-0.2-0.5-0.4c-2.6-13.7-2.6-13.8-2-13.9c0.2-0.1,0.5,0.1,0.6,0.3
                    c0.3,0.7,3.8,6.3,6,9.9c0.1,0.2,0.1,0.5-0.2,0.7c-0.2,0.1-0.5,0.1-0.7-0.2c-0.4-0.7-3.1-4.9-4.8-7.7c0.5,2.8,1.4,7.5,2,10.7
                    C302.1,174.5,301.9,174.7,301.6,174.8C301.6,174.8,301.6,174.8,301.6,174.8z" />
            </g>
            <g>
                <path class="st1"
                    d="M283.5,187.2C283.5,187.2,283.4,187.2,283.5,187.2c-0.4,0-0.5-0.3-0.5-0.6c0-0.1,1.4-10.2-15.3-22
                    c-7.1-5-13.3-12.4-15.8-18.7c-0.1-0.3,0-0.5,0.3-0.6c0.3-0.1,0.5,0,0.6,0.3c2.4,6.2,8.5,13.4,15.4,18.3
                    c17.2,12.2,15.7,22.6,15.7,23C284,187.1,283.7,187.2,283.5,187.2z" />
            </g>
            <g>
                <path class="st1"
                    d="M249.8,127.2C249.8,127.2,249.8,127.2,249.8,127.2c-0.3,0-0.5-0.3-0.5-0.6c2.1-14-6.8-26.7-6.9-26.8
                    c-0.2-0.2-0.1-0.5,0.1-0.7c0.2-0.2,0.5-0.1,0.7,0.1c0.1,0.1,9.2,13.2,7.1,27.5C250.3,127,250.1,127.2,249.8,127.2z" />
            </g>
            <g>
                <path class="st1"
                    d="M312.7,167.6c-0.1,0-0.1,0-0.2,0c-0.1-0.1-0.2-0.2-0.3-0.3c0,0-0.9-2.9-2.4-5.4c-1.1-1.9-1.9-3.3-2.5-4.2
                    c-1.1-1.9-1.4-2.4-1.8-2.8c-0.2-0.2-0.1-0.5,0.1-0.7c0.2-0.2,0.5-0.1,0.7,0.1c0.4,0.5,0.7,1,1.8,3c0.6,1,1.3,2.3,2.5,4.2
                    c1.1,2,2,4.1,2.3,5c1.3-0.7,4.6-2.5,7.2-4.5c3.3-2.5,5.9-5.1,5.9-5.2c0.2-0.2,0.5-0.2,0.7,0c0.2,0.2,0.2,0.5,0,0.7
                    c0,0-2.7,2.7-6,5.3c-3.3,2.5-7.9,4.9-7.9,4.9C312.9,167.6,312.8,167.6,312.7,167.6z" />
            </g>
            <g>
                <path class="st1"
                    d="M282.9,100.7c-0.2,0-0.4-0.1-0.5-0.4c-0.3-0.9-0.5-1.7-0.8-2.6c-2-6.6-4.2-14.1-11.4-24.3
                    c-13.4-19-29-8.8-29.2-8.7c-0.2,0.2-0.5,0.1-0.7-0.1s-0.1-0.5,0.1-0.7c0.2-0.1,16.6-10.8,30.6,9c7.3,10.3,9.5,17.9,11.5,24.6
                    c0.3,0.9,0.5,1.7,0.8,2.6c0.1,0.3-0.1,0.5-0.3,0.6C283,100.7,283,100.7,282.9,100.7z" />
            </g>
            <g>
                <path class="st1"
                    d="M328.9,153.9c-0.2,0-0.4-0.1-0.5-0.3c-0.1-0.3-0.2-0.6-0.3-1c-0.7-2.3-1.8-6.1-9.7-15.1
                    c-4.1-4.6-9.6-8.8-14.9-12.8c-7.3-5.5-14.2-10.7-17.7-17c-0.1-0.2,0-0.5,0.2-0.7c0.2-0.1,0.5,0,0.7,0.2
                    c3.4,6.1,10.2,11.2,17.4,16.7c5.4,4,10.9,8.2,15.1,12.9c8,9.1,9.2,13.1,9.9,15.5c0.1,0.4,0.2,0.7,0.3,1c0.1,0.3,0,0.5-0.3,0.6
                    C329,153.9,328.9,153.9,328.9,153.9z" />
            </g>
            <g>
                <path class="st1"
                    d="M237.8,89.1c-0.2,0-0.4-0.1-0.5-0.3c-0.1-0.3,0-0.5,0.2-0.7l7.5-3.5l-1.1-1.9l-7.3,3.2
                    c-0.2,0.1-0.5,0-0.7-0.3c-0.1-0.3,0-0.5,0.3-0.7l7.7-3.4c0.2-0.1,0.5,0,0.6,0.2l1.5,2.8c0.1,0.1,0.1,0.3,0,0.4s-0.1,0.2-0.3,0.3
                    l-7.9,3.7C238,89.1,237.9,89.1,237.8,89.1z" />
            </g>
            <g>
                <path class="st1"
                    d="M238.9,91.6c-0.1,0-0.3-0.1-0.5-0.2c0-0.1-0.1-0.1-0.1-0.2c-1.5-2.2-4.6-7.8-4.4-15.9
                    c0.2-5.9,3.6-8.8,3.8-8.9c0.2-0.2,0.5-0.1,0.7,0.1c0.2,0.2,0.1,0.5-0.1,0.7c0,0-3.3,2.8-3.4,8.2c-0.2,8,2.9,13.4,4.3,15.4
                    c0.3,0.4,0.1,0.7,0,0.8C239.1,91.5,239,91.6,238.9,91.6z" />
            </g>
        </g>
    </g>
    <g id="point">
        <g>
            <circle class="st0" cx="292.3" cy="44.1" r="11.7" />
        </g>
    </g>
    <g id="point1">
        <g>
            <circle class="st5" cx="28" cy="115.9" r="11.2" />
        </g>
    </g>
    <g id="point2">
        <g>
            <circle class="st5" cx="70.2" cy="184.4" r="3.7" />
        </g>
    </g>
</svg>
    